<?xml version="1.0" encoding="UTF-8" standalone="no"?>
<!DOCTYPE svg PUBLIC "-//W3C//DTD SVG 1.1//EN"
 "http://www.w3.org/Graphics/SVG/1.1/DTD/svg11.dtd">
<!-- Generated by graphviz version 2.28.0 (20110509.1545)
 -->
<!-- Title: _anonymous_0 Pages: 1 -->
<svg width="2068pt" height="564pt"
 viewBox="0.00 0.00 2067.73 564.00" xmlns="http://www.w3.org/2000/svg" xmlns:xlink="http://www.w3.org/1999/xlink">
<g id="graph1" class="graph" transform="scale(1 1) rotate(0) translate(4 560)">
<title>_anonymous_0</title>
<polygon fill="white" stroke="white" points="-4,5 -4,-560 2064.73,-560 2064.73,5 -4,5"/>
<!-- org_liveSense_core -->
<g id="node1" class="node"><title>org_liveSense_core</title>
<polygon fill="yellow" stroke="black" points="932.379,-519 932.379,-555 1071.09,-555 1071.09,-519 932.379,-519"/>
<text text-anchor="middle" x="1001.73" y="-543" font-family="Arial" font-size="8.00">liveSense :: Core</text>
<polyline fill="none" stroke="black" points="932.379,-537.801 1071.09,-537.801 "/>
<text text-anchor="middle" x="1001.73" y="-525.301" font-family="Arial" font-size="8.00">org.liveSense.core(2&#45;SNAPSHOT)</text>
</g>
<!-- org_apache_felix_scr -->
<g id="node2" class="node"><title>org_apache_felix_scr</title>
<polygon fill="green" stroke="black" points="83.0414,-445 83.0414,-481 220.424,-481 220.424,-445 83.0414,-445"/>
<text text-anchor="middle" x="151.733" y="-469" font-family="Arial" font-size="8.00">Apache Felix Declarative Services</text>
<polyline fill="none" stroke="black" points="83.0414,-463.801 220.424,-463.801 "/>
<text text-anchor="middle" x="151.733" y="-451.301" font-family="Arial" font-size="8.00">org.apache.felix.scr(1.6.0)</text>
</g>
<!-- org_liveSense_core&#45;&gt;org_apache_felix_scr -->
<g id="edge2" class="edge"><title>org_liveSense_core&#45;&gt;org_apache_felix_scr</title>
<path fill="none" stroke="yellow" d="M932.36,-532.423C803.128,-525.405 516.855,-508.2 276.733,-482 261.804,-480.371 245.915,-478.325 230.648,-476.202"/>
<polygon fill="yellow" stroke="yellow" points="231.114,-472.733 220.722,-474.799 230.134,-479.664 231.114,-472.733"/>
</g>
<!-- org_apache_jackrabbit_jackrabbit_jcr_commons -->
<g id="node3" class="node"><title>org_apache_jackrabbit_jackrabbit_jcr_commons</title>
<polygon fill="green" stroke="black" points="1175.47,-445 1175.47,-481 1375.99,-481 1375.99,-445 1175.47,-445"/>
<text text-anchor="middle" x="1275.73" y="-469" font-family="Arial" font-size="8.00">Jackrabbit JCR Commons</text>
<polyline fill="none" stroke="black" points="1175.47,-463.801 1375.99,-463.801 "/>
<text text-anchor="middle" x="1275.73" y="-451.301" font-family="Arial" font-size="8.00">org.apache.jackrabbit.jackrabbit&#45;jcr&#45;commons(2.4.0)</text>
</g>
<!-- org_liveSense_core&#45;&gt;org_apache_jackrabbit_jackrabbit_jcr_commons -->
<g id="edge4" class="edge"><title>org_liveSense_core&#45;&gt;org_apache_jackrabbit_jackrabbit_jcr_commons</title>
<path fill="none" stroke="yellow" d="M1066.67,-518.937C1106.96,-508.35 1158.87,-494.708 1200.89,-483.667"/>
<polygon fill="yellow" stroke="yellow" points="1202.01,-486.992 1210.79,-481.065 1200.23,-480.222 1202.01,-486.992"/>
</g>
<!-- org_apache_commons_beanutils -->
<g id="node4" class="node"><title>org_apache_commons_beanutils</title>
<polygon fill="green" stroke="black" points="843.584,-445 843.584,-481 993.881,-481 993.881,-445 843.584,-445"/>
<text text-anchor="middle" x="918.733" y="-469" font-family="Arial" font-size="8.00">Commons BeanUtils</text>
<polyline fill="none" stroke="black" points="843.584,-463.801 993.881,-463.801 "/>
<text text-anchor="middle" x="918.733" y="-451.301" font-family="Arial" font-size="8.00">org.apache.commons.beanutils(1.8.3)</text>
</g>
<!-- org_liveSense_core&#45;&gt;org_apache_commons_beanutils -->
<g id="edge6" class="edge"><title>org_liveSense_core&#45;&gt;org_apache_commons_beanutils</title>
<path fill="none" stroke="yellow" d="M982.063,-518.937C971.391,-509.679 958.026,-498.086 946.328,-487.938"/>
<polygon fill="yellow" stroke="yellow" points="948.397,-485.099 938.549,-481.19 943.81,-490.387 948.397,-485.099"/>
</g>
<!-- javax_jcr -->
<g id="node5" class="node"><title>javax_jcr</title>
<polygon fill="green" stroke="black" points="1393.76,-445 1393.76,-481 1577.7,-481 1577.7,-445 1393.76,-445"/>
<text text-anchor="middle" x="1485.73" y="-469" font-family="Arial" font-size="8.00">Content Repository for JavaTM Technology API</text>
<polyline fill="none" stroke="black" points="1393.76,-463.801 1577.7,-463.801 "/>
<text text-anchor="middle" x="1485.73" y="-451.301" font-family="Arial" font-size="8.00">javax.jcr(2.0)</text>
</g>
<!-- org_liveSense_core&#45;&gt;javax_jcr -->
<g id="edge8" class="edge"><title>org_liveSense_core&#45;&gt;javax_jcr</title>
<path fill="none" stroke="yellow" d="M1071.39,-526.952C1146.05,-517.079 1268.32,-500.408 1383.51,-482.168"/>
<polygon fill="yellow" stroke="yellow" points="1384.23,-485.597 1393.56,-480.57 1383.13,-478.684 1384.23,-485.597"/>
</g>
<!-- org_apache_sling_jcr_api -->
<g id="node6" class="node"><title>org_apache_sling_jcr_api</title>
<polygon fill="green" stroke="black" points="1012.03,-445 1012.03,-481 1157.44,-481 1157.44,-445 1012.03,-445"/>
<text text-anchor="middle" x="1084.73" y="-469" font-family="Arial" font-size="8.00">Apache Sling Repository API Bundle</text>
<polyline fill="none" stroke="black" points="1012.03,-463.801 1157.44,-463.801 "/>
<text text-anchor="middle" x="1084.73" y="-451.301" font-family="Arial" font-size="8.00">org.apache.sling.jcr.api(2.1.0)</text>
</g>
<!-- org_liveSense_core&#45;&gt;org_apache_sling_jcr_api -->
<g id="edge10" class="edge"><title>org_liveSense_core&#45;&gt;org_apache_sling_jcr_api</title>
<path fill="none" stroke="yellow" d="M1021.4,-518.937C1032.07,-509.679 1045.44,-498.086 1057.14,-487.938"/>
<polygon fill="yellow" stroke="yellow" points="1059.66,-490.387 1064.92,-481.19 1055.07,-485.099 1059.66,-490.387"/>
</g>
<!-- org_apache_sling_commons_osgi -->
<g id="node7" class="node"><title>org_apache_sling_commons_osgi</title>
<polygon fill="green" stroke="black" points="285.479,-445 285.479,-481 437.987,-481 437.987,-445 285.479,-445"/>
<text text-anchor="middle" x="361.733" y="-469" font-family="Arial" font-size="8.00">Apache Sling Commons OSGi support</text>
<polyline fill="none" stroke="black" points="285.479,-463.801 437.987,-463.801 "/>
<text text-anchor="middle" x="361.733" y="-451.301" font-family="Arial" font-size="8.00">org.apache.sling.commons.osgi(2.1.0)</text>
</g>
<!-- org_liveSense_core&#45;&gt;org_apache_sling_commons_osgi -->
<g id="edge12" class="edge"><title>org_liveSense_core&#45;&gt;org_apache_sling_commons_osgi</title>
<path fill="none" stroke="yellow" d="M932.124,-530.264C830.665,-521.595 636.311,-503.829 471.733,-482 464.112,-480.989 456.207,-479.859 448.291,-478.67"/>
<polygon fill="yellow" stroke="yellow" points="448.691,-475.19 438.277,-477.138 447.632,-482.11 448.691,-475.19"/>
</g>
<!-- org_apache_felix_http_jetty -->
<g id="node8" class="node"><title>org_apache_felix_http_jetty</title>
<polygon fill="green" stroke="black" points="608.702,-445 608.702,-481 736.764,-481 736.764,-445 608.702,-445"/>
<text text-anchor="middle" x="672.733" y="-469" font-family="Arial" font-size="8.00">Apache Felix Http Jetty</text>
<polyline fill="none" stroke="black" points="608.702,-463.801 736.764,-463.801 "/>
<text text-anchor="middle" x="672.733" y="-451.301" font-family="Arial" font-size="8.00">org.apache.felix.http.jetty(2.2.0)</text>
</g>
<!-- org_liveSense_core&#45;&gt;org_apache_felix_http_jetty -->
<g id="edge14" class="edge"><title>org_liveSense_core&#45;&gt;org_apache_felix_http_jetty</title>
<path fill="none" stroke="yellow" d="M932.154,-521.321C881.741,-510.615 811.967,-495.652 750.733,-482 749.474,-481.719 748.204,-481.435 746.925,-481.149"/>
<polygon fill="yellow" stroke="yellow" points="747.514,-477.694 736.989,-478.908 745.974,-484.522 747.514,-477.694"/>
</g>
<!-- net_entropysoft_transmorph -->
<g id="node9" class="node"><title>net_entropysoft_transmorph</title>
<polygon fill="green" stroke="black" points="1595.37,-445 1595.37,-481 1730.1,-481 1730.1,-445 1595.37,-445"/>
<text text-anchor="middle" x="1662.73" y="-469" font-family="Arial" font-size="8.00">Transmorph</text>
<polyline fill="none" stroke="black" points="1595.37,-463.801 1730.1,-463.801 "/>
<text text-anchor="middle" x="1662.73" y="-451.301" font-family="Arial" font-size="8.00">net.entropysoft.transmorph(3.1.1)</text>
</g>
<!-- org_liveSense_core&#45;&gt;net_entropysoft_transmorph -->
<g id="edge16" class="edge"><title>org_liveSense_core&#45;&gt;net_entropysoft_transmorph</title>
<path fill="none" stroke="yellow" d="M1071.34,-532.663C1179.34,-526.804 1393.81,-512.44 1585.27,-481.939"/>
<polygon fill="yellow" stroke="yellow" points="1585.92,-485.379 1595.23,-480.333 1584.8,-478.468 1585.92,-485.379"/>
</g>
<!-- com_google_guava -->
<g id="node10" class="node"><title>com_google_guava</title>
<polygon fill="green" stroke="black" points="1748.58,-445 1748.58,-481 1914.88,-481 1914.88,-445 1748.58,-445"/>
<text text-anchor="middle" x="1831.73" y="-469" font-family="Arial" font-size="8.00">Guava: Google Core Libraries for Java 1.5</text>
<polyline fill="none" stroke="black" points="1748.58,-463.801 1914.88,-463.801 "/>
<text text-anchor="middle" x="1831.73" y="-451.301" font-family="Arial" font-size="8.00">com.google.guava(10.0.0)</text>
</g>
<!-- org_liveSense_core&#45;&gt;com_google_guava -->
<g id="edge18" class="edge"><title>org_liveSense_core&#45;&gt;com_google_guava</title>
<path fill="none" stroke="yellow" d="M1071.11,-533.649C1200.36,-528.672 1486.87,-514.831 1738.35,-481.949"/>
<polygon fill="yellow" stroke="yellow" points="1738.95,-485.399 1748.41,-480.621 1738.04,-478.46 1738.95,-485.399"/>
</g>
<!-- org_apache_sling_api -->
<g id="node11" class="node"><title>org_apache_sling_api</title>
<polygon fill="green" stroke="black" points="480.37,-445 480.37,-481 591.096,-481 591.096,-445 480.37,-445"/>
<text text-anchor="middle" x="535.733" y="-469" font-family="Arial" font-size="8.00">Apache Sling API</text>
<polyline fill="none" stroke="black" points="480.37,-463.801 591.096,-463.801 "/>
<text text-anchor="middle" x="535.733" y="-451.301" font-family="Arial" font-size="8.00">org.apache.sling.api(2.2.4)</text>
</g>
<!-- org_liveSense_core&#45;&gt;org_apache_sling_api -->
<g id="edge20" class="edge"><title>org_liveSense_core&#45;&gt;org_apache_sling_api</title>
<path fill="none" stroke="yellow" d="M932.234,-529.662C853.818,-521.839 722.399,-506.703 600.961,-482.111"/>
<polygon fill="yellow" stroke="yellow" points="601.618,-478.672 591.118,-480.092 600.211,-485.53 601.618,-478.672"/>
</g>
<!-- org_apache_commons_lang -->
<g id="node12" class="node"><title>org_apache_commons_lang</title>
<polygon fill="green" stroke="black" points="1933.37,-445 1933.37,-481 2060.1,-481 2060.1,-445 1933.37,-445"/>
<text text-anchor="middle" x="1996.73" y="-469" font-family="Arial" font-size="8.00">Commons Lang</text>
<polyline fill="none" stroke="black" points="1933.37,-463.801 2060.1,-463.801 "/>
<text text-anchor="middle" x="1996.73" y="-451.301" font-family="Arial" font-size="8.00">org.apache.commons.lang(2.5)</text>
</g>
<!-- org_liveSense_core&#45;&gt;org_apache_commons_lang -->
<g id="edge22" class="edge"><title>org_liveSense_core&#45;&gt;org_apache_commons_lang</title>
<path fill="none" stroke="yellow" d="M1071.29,-536.259C1224.05,-535.894 1600.22,-529.879 1923.15,-481.905"/>
<polygon fill="yellow" stroke="yellow" points="1923.8,-485.347 1933.17,-480.401 1922.76,-478.425 1923.8,-485.347"/>
</g>
<!-- slf4j_api -->
<g id="node13" class="node"><title>slf4j_api</title>
<polygon fill="green" stroke="black" points="759.61,-445 759.61,-481 825.856,-481 825.856,-445 759.61,-445"/>
<text text-anchor="middle" x="792.733" y="-469" font-family="Arial" font-size="8.00">slf4j&#45;api</text>
<polyline fill="none" stroke="black" points="759.61,-463.801 825.856,-463.801 "/>
<text text-anchor="middle" x="792.733" y="-451.301" font-family="Arial" font-size="8.00">slf4j.api(1.6.1)</text>
</g>
<!-- org_liveSense_core&#45;&gt;slf4j_api -->
<g id="edge24" class="edge"><title>org_liveSense_core&#45;&gt;slf4j_api</title>
<path fill="none" stroke="yellow" d="M944.472,-518.917C914.306,-509.586 876.574,-497.396 835.473,-482.139"/>
<polygon fill="yellow" stroke="yellow" points="836.683,-478.855 826.091,-478.625 834.228,-485.411 836.683,-478.855"/>
</g>
<!-- org_apache_felix_metatype -->
<g id="node14" class="node"><title>org_apache_felix_metatype</title>
<polygon fill="#3182bd" stroke="black" points="214.368,-75 214.368,-111 345.098,-111 345.098,-75 214.368,-75"/>
<text text-anchor="middle" x="279.733" y="-99" font-family="Arial" font-size="8.00">Apache Felix Metatype Service</text>
<polyline fill="none" stroke="black" points="214.368,-93.8008 345.098,-93.8008 "/>
<text text-anchor="middle" x="279.733" y="-81.3008" font-family="Arial" font-size="8.00">org.apache.felix.metatype(1.0.4)</text>
</g>
<!-- org_apache_felix_scr&#45;&gt;org_apache_felix_metatype -->
<g id="edge26" class="edge"><title>org_apache_felix_scr&#45;&gt;org_apache_felix_metatype</title>
<path fill="none" stroke="green" d="M151.733,-444.917C151.733,-417.658 151.733,-362.639 151.733,-316 151.733,-316 151.733,-316 151.733,-240 151.733,-198.248 145.225,-181.054 170.733,-148 181.518,-134.024 196.882,-123.417 212.685,-115.47"/>
<polygon fill="green" stroke="green" points="214.444,-118.511 222.008,-111.093 211.469,-112.174 214.444,-118.511"/>
</g>
<!-- org_apache_sling_commons_logservice -->
<g id="node15" class="node"><title>org_apache_sling_commons_logservice</title>
<polygon fill="#3182bd" stroke="black" points="233.688,-1 233.688,-37 417.778,-37 417.778,-1 233.688,-1"/>
<text text-anchor="middle" x="325.733" y="-25" font-family="Arial" font-size="8.00">Apache Sling OSGi LogService Implementation</text>
<polyline fill="none" stroke="black" points="233.688,-19.8008 417.778,-19.8008 "/>
<text text-anchor="middle" x="325.733" y="-7.30078" font-family="Arial" font-size="8.00">org.apache.sling.commons.logservice(1.0.0)</text>
</g>
<!-- org_apache_felix_scr&#45;&gt;org_apache_sling_commons_logservice -->
<g id="edge28" class="edge"><title>org_apache_felix_scr&#45;&gt;org_apache_sling_commons_logservice</title>
<path fill="none" stroke="green" d="M113.362,-444.884C69.214,-422.268 2.73284,-377.93 2.73284,-316 2.73284,-316 2.73284,-316 2.73284,-166 2.73284,-124.248 -8.19851,-103.109 21.7328,-74 50.051,-46.46 146.523,-32.7322 223.288,-26.0409"/>
<polygon fill="green" stroke="green" points="223.829,-29.5078 233.501,-25.1816 223.242,-22.5325 223.829,-29.5078"/>
</g>
<!-- org_apache_felix_configadmin -->
<g id="node16" class="node"><title>org_apache_felix_configadmin</title>
<polygon fill="#3182bd" stroke="black" points="31.0278,-75 31.0278,-111 196.438,-111 196.438,-75 31.0278,-75"/>
<text text-anchor="middle" x="113.733" y="-99" font-family="Arial" font-size="8.00">Apache Felix Configuration Admin Service</text>
<polyline fill="none" stroke="black" points="31.0278,-93.8008 196.438,-93.8008 "/>
<text text-anchor="middle" x="113.733" y="-81.3008" font-family="Arial" font-size="8.00">org.apache.felix.configadmin(1.2.8)</text>
</g>
<!-- org_apache_felix_scr&#45;&gt;org_apache_felix_configadmin -->
<g id="edge30" class="edge"><title>org_apache_felix_scr&#45;&gt;org_apache_felix_configadmin</title>
<path fill="none" stroke="green" d="M135.615,-444.637C113.306,-418.721 75.7328,-367.436 75.7328,-316 75.7328,-316 75.7328,-316 75.7328,-240 75.7328,-197.124 91.2709,-149.384 102.475,-120.531"/>
<polygon fill="green" stroke="green" points="105.763,-121.737 106.225,-111.153 99.2628,-119.138 105.763,-121.737"/>
</g>
<!-- org_apache_jackrabbit_jackrabbit_jcr_commons&#45;&gt;javax_jcr -->
<g id="edge32" class="edge"><title>org_apache_jackrabbit_jackrabbit_jcr_commons&#45;&gt;javax_jcr</title>
<path fill="none" stroke="green" d="M1376.22,-463C1378.69,-463 1381.15,-463 1383.62,-463"/>
<polygon fill="green" stroke="green" points="1383.76,-466.5 1393.76,-463 1383.76,-459.5 1383.76,-466.5"/>
</g>
<!-- org_apache_jackrabbit_jackrabbit_api -->
<g id="node17" class="node"><title>org_apache_jackrabbit_jackrabbit_api</title>
<polygon fill="#3182bd" stroke="black" points="1329.03,-371 1329.03,-407 1494.44,-407 1494.44,-371 1329.03,-371"/>
<text text-anchor="middle" x="1411.73" y="-395" font-family="Arial" font-size="8.00">Apache Jackrabbit API</text>
<polyline fill="none" stroke="black" points="1329.03,-389.801 1494.44,-389.801 "/>
<text text-anchor="middle" x="1411.73" y="-377.301" font-family="Arial" font-size="8.00">org.apache.jackrabbit.jackrabbit&#45;api(2.4.0)</text>
</g>
<!-- org_apache_jackrabbit_jackrabbit_jcr_commons&#45;&gt;org_apache_jackrabbit_jackrabbit_api -->
<g id="edge34" class="edge"><title>org_apache_jackrabbit_jackrabbit_jcr_commons&#45;&gt;org_apache_jackrabbit_jackrabbit_api</title>
<path fill="none" stroke="green" d="M1307.96,-444.937C1326.63,-435.056 1350.32,-422.514 1370.35,-411.91"/>
<polygon fill="green" stroke="green" points="1372.06,-414.962 1379.26,-407.19 1368.79,-408.776 1372.06,-414.962"/>
</g>
<!-- org_apache_commons_collections -->
<g id="node18" class="node"><title>org_apache_commons_collections</title>
<polygon fill="#3182bd" stroke="black" points="1062.92,-371 1062.92,-407 1218.55,-407 1218.55,-371 1062.92,-371"/>
<text text-anchor="middle" x="1140.73" y="-395" font-family="Arial" font-size="8.00">Commons Collections</text>
<polyline fill="none" stroke="black" points="1062.92,-389.801 1218.55,-389.801 "/>
<text text-anchor="middle" x="1140.73" y="-377.301" font-family="Arial" font-size="8.00">org.apache.commons.collections(3.2.1)</text>
</g>
<!-- org_apache_commons_beanutils&#45;&gt;org_apache_commons_collections -->
<g id="edge36" class="edge"><title>org_apache_commons_beanutils&#45;&gt;org_apache_commons_collections</title>
<path fill="none" stroke="green" d="M971.344,-444.937C1003.44,-434.529 1044.63,-421.168 1078.36,-410.229"/>
<polygon fill="green" stroke="green" points="1079.68,-413.48 1088.12,-407.065 1077.52,-406.821 1079.68,-413.48"/>
</g>
<!-- jcl_over_slf4j -->
<g id="node19" class="node"><title>jcl_over_slf4j</title>
<polygon fill="#3182bd" stroke="black" points="964.498,-371 964.498,-407 1044.97,-407 1044.97,-371 964.498,-371"/>
<text text-anchor="middle" x="1004.73" y="-395" font-family="Arial" font-size="8.00">jcl&#45;over&#45;slf4j</text>
<polyline fill="none" stroke="black" points="964.498,-389.801 1044.97,-389.801 "/>
<text text-anchor="middle" x="1004.73" y="-377.301" font-family="Arial" font-size="8.00">jcl.over.slf4j(1.6.1)</text>
</g>
<!-- org_apache_commons_beanutils&#45;&gt;jcl_over_slf4j -->
<g id="edge38" class="edge"><title>org_apache_commons_beanutils&#45;&gt;jcl_over_slf4j</title>
<path fill="none" stroke="green" d="M939.114,-444.937C950.278,-435.59 964.286,-423.863 976.489,-413.646"/>
<polygon fill="green" stroke="green" points="978.779,-416.293 984.2,-407.19 974.286,-410.926 978.779,-416.293"/>
</g>
<!-- org_apache_sling_jcr_api&#45;&gt;javax_jcr -->
<g id="edge40" class="edge"><title>org_apache_sling_jcr_api&#45;&gt;javax_jcr</title>
<path fill="none" stroke="green" d="M1120.06,-481.079C1136.52,-488.524 1156.65,-496.269 1175.73,-500 1262.97,-517.057 1288.01,-514.358 1375.73,-500 1394.94,-496.856 1415.32,-490.815 1433.25,-484.512"/>
<polygon fill="green" stroke="green" points="1434.72,-487.7 1442.93,-481 1432.34,-481.119 1434.72,-487.7"/>
</g>
<!-- org_apache_felix_eventadmin -->
<g id="node30" class="node"><title>org_apache_felix_eventadmin</title>
<polygon fill="#bdbdbd" stroke="black" points="179.916,-149 179.916,-185 323.549,-185 323.549,-149 179.916,-149"/>
<text text-anchor="middle" x="251.733" y="-173" font-family="Arial" font-size="8.00">Apache Felix EventAdmin</text>
<polyline fill="none" stroke="black" points="179.916,-167.801 323.549,-167.801 "/>
<text text-anchor="middle" x="251.733" y="-155.301" font-family="Arial" font-size="8.00">org.apache.felix.eventadmin(1.2.14)</text>
</g>
<!-- org_apache_sling_commons_osgi&#45;&gt;org_apache_felix_eventadmin -->
<g id="edge42" class="edge"><title>org_apache_sling_commons_osgi&#45;&gt;org_apache_felix_eventadmin</title>
<path fill="none" stroke="green" d="M355.343,-444.923C336.965,-395.802 283.865,-253.881 261.669,-194.557"/>
<polygon fill="green" stroke="green" points="264.922,-193.264 258.14,-185.125 258.366,-195.717 264.922,-193.264"/>
</g>
<!-- org_apache_felix_http_jetty&#45;&gt;slf4j_api -->
<g id="edge74" class="edge"><title>org_apache_felix_http_jetty&#45;&gt;slf4j_api</title>
<path fill="none" stroke="#bdbdbd" d="M736.952,-463C741.003,-463 745.055,-463 749.106,-463"/>
<polygon fill="#bdbdbd" stroke="#bdbdbd" points="749.177,-466.5 759.177,-463 749.177,-459.5 749.177,-466.5"/>
</g>
<!-- org_apache_felix_http_jetty&#45;&gt;org_apache_sling_commons_logservice -->
<g id="edge72" class="edge"><title>org_apache_felix_http_jetty&#45;&gt;org_apache_sling_commons_logservice</title>
<path fill="none" stroke="#bdbdbd" d="M677.989,-444.749C685.198,-423.982 700.137,-389.477 724.733,-370 759.025,-342.845 1072.1,-291.226 1102.73,-260 1138.14,-223.903 1155.53,-186.486 1122.73,-148 1034.6,-44.5877 622.725,-24.3971 428.102,-20.6865"/>
<polygon fill="#bdbdbd" stroke="#bdbdbd" points="427.928,-17.1829 417.867,-20.5028 427.802,-24.1818 427.928,-17.1829"/>
</g>
<!-- org_apache_felix_http_jetty&#45;&gt;org_apache_felix_configadmin -->
<g id="edge76" class="edge"><title>org_apache_felix_http_jetty&#45;&gt;org_apache_felix_configadmin</title>
<path fill="none" stroke="#bdbdbd" d="M626.152,-444.94C600.525,-435.061 568.406,-421.861 540.733,-408 369.267,-322.113 307.301,-320.634 170.733,-186 151.415,-166.956 135.757,-140.131 125.775,-120.358"/>
<polygon fill="#bdbdbd" stroke="#bdbdbd" points="128.875,-118.731 121.34,-111.284 122.586,-121.805 128.875,-118.731"/>
</g>
<!-- org_apache_sling_api&#45;&gt;org_apache_felix_http_jetty -->
<g id="edge98" class="edge"><title>org_apache_sling_api&#45;&gt;org_apache_felix_http_jetty</title>
<path fill="none" stroke="#bdbdbd" d="M591.122,-463C593.587,-463 596.053,-463 598.519,-463"/>
<polygon fill="#bdbdbd" stroke="#bdbdbd" points="598.655,-466.5 608.655,-463 598.655,-459.5 598.655,-466.5"/>
</g>
<!-- org_apache_sling_api&#45;&gt;slf4j_api -->
<g id="edge100" class="edge"><title>org_apache_sling_api&#45;&gt;slf4j_api</title>
<path fill="none" stroke="#bdbdbd" d="M563.656,-481.048C576.779,-488.486 592.979,-496.235 608.733,-500 664.064,-513.222 682.251,-516.373 736.733,-500 745.994,-497.217 755.135,-492.35 763.261,-487.043"/>
<polygon fill="#bdbdbd" stroke="#bdbdbd" points="765.446,-489.787 771.638,-481.19 761.436,-484.049 765.446,-489.787"/>
</g>
<!-- ch_qos_logback_classic -->
<g id="node20" class="node"><title>ch_qos_logback_classic</title>
<polygon fill="#bdbdbd" stroke="black" points="733.375,-371 733.375,-407 852.09,-407 852.09,-371 733.375,-371"/>
<text text-anchor="middle" x="792.733" y="-395" font-family="Arial" font-size="8.00">Logback Classic Module</text>
<polyline fill="none" stroke="black" points="733.375,-389.801 852.09,-389.801 "/>
<text text-anchor="middle" x="792.733" y="-377.301" font-family="Arial" font-size="8.00">ch.qos.logback.classic(1.0.3)</text>
</g>
<!-- slf4j_api&#45;&gt;ch_qos_logback_classic -->
<g id="edge52" class="edge"><title>slf4j_api&#45;&gt;ch_qos_logback_classic</title>
<path fill="none" stroke="#deebf7" d="M786.893,-444.937C786.03,-436.807 785.781,-426.876 786.145,-417.705"/>
<polygon fill="#deebf7" stroke="#deebf7" points="789.656,-417.658 786.853,-407.441 782.673,-417.176 789.656,-417.658"/>
</g>
<!-- org_apache_felix_metatype&#45;&gt;org_apache_sling_commons_logservice -->
<g id="edge44" class="edge"><title>org_apache_felix_metatype&#45;&gt;org_apache_sling_commons_logservice</title>
<path fill="none" stroke="#3182bd" d="M290.634,-74.937C296.167,-66.277 303.006,-55.5731 309.172,-45.9207"/>
<polygon fill="#3182bd" stroke="#3182bd" points="312.156,-47.752 314.59,-37.4407 306.257,-43.9833 312.156,-47.752"/>
</g>
<!-- org_apache_sling_commons_logservice&#45;&gt;slf4j_api -->
<g id="edge50" class="edge"><title>org_apache_sling_commons_logservice&#45;&gt;slf4j_api</title>
<path fill="none" stroke="#9ecae1" d="M418.09,-21.2442C583.466,-24.4274 923.279,-35.574 1034.73,-74 1090.79,-93.3256 1117.76,-95.7244 1145.73,-148 1169.4,-192.229 1160.48,-218.888 1131.73,-260 1121.87,-274.099 918.732,-390.462 831.728,-439.907"/>
<polygon fill="#9ecae1" stroke="#9ecae1" points="829.908,-436.916 822.941,-444.898 833.365,-443.003 829.908,-436.916"/>
</g>
<!-- org_apache_felix_configadmin&#45;&gt;org_apache_sling_commons_logservice -->
<g id="edge96" class="edge"><title>org_apache_felix_configadmin&#45;&gt;org_apache_sling_commons_logservice</title>
<path fill="none" stroke="#bdbdbd" d="M163.974,-74.937C194.489,-64.5733 233.623,-51.2825 265.755,-40.3697"/>
<polygon fill="#bdbdbd" stroke="#bdbdbd" points="267.142,-43.5951 275.485,-37.0651 264.891,-36.9669 267.142,-43.5951"/>
</g>
<!-- org_apache_jackrabbit_jackrabbit_api&#45;&gt;javax_jcr -->
<g id="edge46" class="edge"><title>org_apache_jackrabbit_jackrabbit_api&#45;&gt;javax_jcr</title>
<path fill="none" stroke="#3182bd" d="M1429.4,-407.19C1438.85,-416.38 1450.63,-427.844 1460.97,-437.908"/>
<polygon fill="#3182bd" stroke="#3182bd" points="1458.59,-440.472 1468.2,-444.937 1463.47,-435.455 1458.59,-440.472"/>
</g>
<!-- jcl_over_slf4j&#45;&gt;slf4j_api -->
<g id="edge48" class="edge"><title>jcl_over_slf4j&#45;&gt;slf4j_api</title>
<path fill="none" stroke="#3182bd" d="M964.366,-403.558C959.772,-405.07 955.154,-406.577 950.733,-408 902.257,-423.599 887.089,-425.201 835.734,-443.798"/>
<polygon fill="#3182bd" stroke="#3182bd" points="834.261,-440.61 826.077,-447.339 836.671,-447.183 834.261,-440.61"/>
</g>
<!-- ch_qos_logback_classic&#45;&gt;org_apache_felix_http_jetty -->
<g id="edge56" class="edge"><title>ch_qos_logback_classic&#45;&gt;org_apache_felix_http_jetty</title>
<path fill="none" stroke="#bdbdbd" d="M764.083,-407.19C747.874,-416.915 727.421,-429.187 709.979,-439.652"/>
<polygon fill="#bdbdbd" stroke="#bdbdbd" points="707.945,-436.791 701.171,-444.937 711.547,-442.793 707.945,-436.791"/>
</g>
<!-- ch_qos_logback_classic&#45;&gt;slf4j_api -->
<g id="edge58" class="edge"><title>ch_qos_logback_classic&#45;&gt;slf4j_api</title>
<path fill="none" stroke="#bdbdbd" d="M798.612,-407.441C799.456,-415.625 799.686,-425.572 799.304,-434.719"/>
<polygon fill="#bdbdbd" stroke="#bdbdbd" points="795.795,-434.713 798.573,-444.937 802.777,-435.212 795.795,-434.713"/>
</g>
<!-- ch_qos_logback_core -->
<g id="node21" class="node"><title>ch_qos_logback_core</title>
<polygon fill="#bdbdbd" stroke="black" points="622.596,-297 622.596,-333 732.87,-333 732.87,-297 622.596,-297"/>
<text text-anchor="middle" x="677.733" y="-321" font-family="Arial" font-size="8.00">Logback Core Module</text>
<polyline fill="none" stroke="black" points="622.596,-315.801 732.87,-315.801 "/>
<text text-anchor="middle" x="677.733" y="-303.301" font-family="Arial" font-size="8.00">ch.qos.logback.core(1.0.3)</text>
</g>
<!-- ch_qos_logback_classic&#45;&gt;ch_qos_logback_core -->
<g id="edge54" class="edge"><title>ch_qos_logback_classic&#45;&gt;ch_qos_logback_core</title>
<path fill="none" stroke="#bdbdbd" d="M765.479,-370.937C750.124,-361.323 730.745,-349.19 714.107,-338.774"/>
<polygon fill="#bdbdbd" stroke="#bdbdbd" points="715.522,-335.53 705.189,-333.19 711.808,-341.463 715.522,-335.53"/>
</g>
<!-- groovy_all -->
<g id="node22" class="node"><title>groovy_all</title>
<polygon fill="#bdbdbd" stroke="black" points="752.832,-297 752.832,-333 826.633,-333 826.633,-297 752.832,-297"/>
<text text-anchor="middle" x="789.733" y="-321" font-family="Arial" font-size="8.00">Groovy Runtime</text>
<polyline fill="none" stroke="black" points="752.832,-315.801 826.633,-315.801 "/>
<text text-anchor="middle" x="789.733" y="-303.301" font-family="Arial" font-size="8.00">groovy&#45;all(1.8.2)</text>
</g>
<!-- ch_qos_logback_classic&#45;&gt;groovy_all -->
<g id="edge60" class="edge"><title>ch_qos_logback_classic&#45;&gt;groovy_all</title>
<path fill="none" stroke="#bdbdbd" d="M792.022,-370.937C791.683,-362.807 791.269,-352.876 790.887,-343.705"/>
<polygon fill="#bdbdbd" stroke="#bdbdbd" points="794.373,-343.286 790.46,-333.441 787.379,-343.578 794.373,-343.286"/>
</g>
<!-- ch_qos_logback_core&#45;&gt;org_apache_felix_http_jetty -->
<g id="edge64" class="edge"><title>ch_qos_logback_core&#45;&gt;org_apache_felix_http_jetty</title>
<path fill="none" stroke="#bdbdbd" d="M667.777,-333.366C662.459,-343.654 656.459,-357.154 653.733,-370 650.227,-386.521 650.889,-391.352 653.733,-408 655.296,-417.154 658.25,-426.819 661.37,-435.403"/>
<polygon fill="#bdbdbd" stroke="#bdbdbd" points="658.166,-436.823 665.036,-444.888 664.695,-434.299 658.166,-436.823"/>
</g>
<!-- org_glassfish_javax_mail -->
<g id="node23" class="node"><title>org_glassfish_javax_mail</title>
<polygon fill="#bdbdbd" stroke="black" points="601.485,-223 601.485,-259 753.981,-259 753.981,-223 601.485,-223"/>
<text text-anchor="middle" x="677.733" y="-247" font-family="Arial" font-size="8.00">javax.mail API v.1.4</text>
<polyline fill="none" stroke="black" points="601.485,-241.801 753.981,-241.801 "/>
<text text-anchor="middle" x="677.733" y="-229.301" font-family="Arial" font-size="8.00">org.glassfish.javax.mail(3.0.0.Preview)</text>
</g>
<!-- ch_qos_logback_core&#45;&gt;org_glassfish_javax_mail -->
<g id="edge62" class="edge"><title>ch_qos_logback_core&#45;&gt;org_glassfish_javax_mail</title>
<path fill="none" stroke="#bdbdbd" d="M677.733,-296.937C677.733,-288.807 677.733,-278.876 677.733,-269.705"/>
<polygon fill="#bdbdbd" stroke="#bdbdbd" points="681.233,-269.441 677.733,-259.441 674.233,-269.441 681.233,-269.441"/>
</g>
<!-- groovy_all&#45;&gt;org_apache_felix_http_jetty -->
<g id="edge68" class="edge"><title>groovy_all&#45;&gt;org_apache_felix_http_jetty</title>
<path fill="none" stroke="#bdbdbd" d="M752.575,-332.473C728.356,-343.932 699.803,-359.056 691.733,-370 678.012,-388.606 673.66,-414.814 672.509,-434.501"/>
<polygon fill="#bdbdbd" stroke="#bdbdbd" points="669.005,-434.564 672.16,-444.678 676.001,-434.804 669.005,-434.564"/>
</g>
<!-- org_apache_servicemix_bundles_xstream -->
<g id="node24" class="node"><title>org_apache_servicemix_bundles_xstream</title>
<polygon fill="#bdbdbd" stroke="black" points="907.36,-223 907.36,-259 1094.11,-259 1094.11,-223 907.36,-223"/>
<text text-anchor="middle" x="1000.73" y="-247" font-family="Arial" font-size="8.00">Apache ServiceMix :: Bundles :: xstream</text>
<polyline fill="none" stroke="black" points="907.36,-241.801 1094.11,-241.801 "/>
<text text-anchor="middle" x="1000.73" y="-229.301" font-family="Arial" font-size="8.00">org.apache.servicemix.bundles.xstream(1.4.1.1)</text>
</g>
<!-- groovy_all&#45;&gt;org_apache_servicemix_bundles_xstream -->
<g id="edge66" class="edge"><title>groovy_all&#45;&gt;org_apache_servicemix_bundles_xstream</title>
<path fill="none" stroke="#bdbdbd" d="M826.97,-301.294C858.573,-290.509 904.499,-274.838 941.2,-262.315"/>
<polygon fill="#bdbdbd" stroke="#bdbdbd" points="942.467,-265.58 950.801,-259.038 940.206,-258.955 942.467,-265.58"/>
</g>
<!-- org_apache_sling_scripting_jsp -->
<g id="node25" class="node"><title>org_apache_sling_scripting_jsp</title>
<polygon fill="#bdbdbd" stroke="black" points="383.364,-223 383.364,-259 530.102,-259 530.102,-223 383.364,-223"/>
<text text-anchor="middle" x="456.733" y="-247" font-family="Arial" font-size="8.00">Apache Sling Scripting JSP Support</text>
<polyline fill="none" stroke="black" points="383.364,-241.801 530.102,-241.801 "/>
<text text-anchor="middle" x="456.733" y="-229.301" font-family="Arial" font-size="8.00">org.apache.sling.scripting.jsp(2.0.24)</text>
</g>
<!-- groovy_all&#45;&gt;org_apache_sling_scripting_jsp -->
<g id="edge70" class="edge"><title>groovy_all&#45;&gt;org_apache_sling_scripting_jsp</title>
<path fill="none" stroke="#bdbdbd" d="M752.731,-299.407C749.043,-298.17 745.332,-297.008 741.733,-296 674.941,-277.298 597.524,-263.089 540.248,-253.952"/>
<polygon fill="#bdbdbd" stroke="#bdbdbd" points="540.579,-250.461 530.156,-252.361 539.489,-257.376 540.579,-250.461"/>
</g>
<!-- org_apache_servicemix_bundles_xpp3 -->
<g id="node26" class="node"><title>org_apache_servicemix_bundles_xpp3</title>
<polygon fill="#bdbdbd" stroke="black" points="925.461,-149 925.461,-185 1114,-185 1114,-149 925.461,-149"/>
<text text-anchor="middle" x="1019.73" y="-173" font-family="Arial" font-size="8.00">Apache ServiceMix :: Bundles :: xpp3</text>
<polyline fill="none" stroke="black" points="925.461,-167.801 1114,-167.801 "/>
<text text-anchor="middle" x="1019.73" y="-155.301" font-family="Arial" font-size="8.00">org.apache.servicemix.bundles.xpp3(1.1.0.4c_5)</text>
</g>
<!-- org_apache_servicemix_bundles_xstream&#45;&gt;org_apache_servicemix_bundles_xpp3 -->
<g id="edge78" class="edge"><title>org_apache_servicemix_bundles_xstream&#45;&gt;org_apache_servicemix_bundles_xpp3</title>
<path fill="none" stroke="#bdbdbd" d="M1005.24,-222.937C1007.4,-214.719 1010.06,-204.66 1012.5,-195.406"/>
<polygon fill="#bdbdbd" stroke="#bdbdbd" points="1015.96,-196.003 1015.13,-185.441 1009.19,-194.217 1015.96,-196.003"/>
</g>
<!-- org_apache_servicemix_bundles_cglib -->
<g id="node27" class="node"><title>org_apache_servicemix_bundles_cglib</title>
<polygon fill="#bdbdbd" stroke="black" points="723.909,-149 723.909,-185 907.557,-185 907.557,-149 723.909,-149"/>
<text text-anchor="middle" x="815.733" y="-173" font-family="Arial" font-size="8.00">Apache ServiceMix Bundles: cglib&#45;2.1_3</text>
<polyline fill="none" stroke="black" points="723.909,-167.801 907.557,-167.801 "/>
<text text-anchor="middle" x="815.733" y="-155.301" font-family="Arial" font-size="8.00">org.apache.servicemix.bundles.cglib(2.1.0.3_4)</text>
</g>
<!-- org_apache_servicemix_bundles_xstream&#45;&gt;org_apache_servicemix_bundles_cglib -->
<g id="edge80" class="edge"><title>org_apache_servicemix_bundles_xstream&#45;&gt;org_apache_servicemix_bundles_cglib</title>
<path fill="none" stroke="#bdbdbd" d="M956.89,-222.937C930.606,-212.707 896.993,-199.626 869.162,-188.794"/>
<polygon fill="#bdbdbd" stroke="#bdbdbd" points="870.169,-185.43 859.581,-185.065 867.63,-191.954 870.169,-185.43"/>
</g>
<!-- org_apache_sling_scripting_jsp&#45;&gt;org_apache_felix_scr -->
<g id="edge82" class="edge"><title>org_apache_sling_scripting_jsp&#45;&gt;org_apache_felix_scr</title>
<path fill="none" stroke="#bdbdbd" d="M432.859,-259.221C378.397,-298.505 244.964,-394.752 183.58,-439.029"/>
<polygon fill="#bdbdbd" stroke="#bdbdbd" points="181.475,-436.231 175.412,-444.92 185.57,-441.909 181.475,-436.231"/>
</g>
<!-- org_apache_sling_scripting_jsp&#45;&gt;org_apache_felix_http_jetty -->
<g id="edge88" class="edge"><title>org_apache_sling_scripting_jsp&#45;&gt;org_apache_felix_http_jetty</title>
<path fill="none" stroke="#bdbdbd" d="M467.707,-259.248C491.813,-296.794 549.338,-384.454 575.733,-408 589.931,-420.666 607.604,-431.593 623.959,-440.24"/>
<polygon fill="#bdbdbd" stroke="#bdbdbd" points="622.383,-443.365 632.88,-444.805 625.572,-437.133 622.383,-443.365"/>
</g>
<!-- org_apache_sling_scripting_jsp&#45;&gt;org_apache_sling_api -->
<g id="edge84" class="edge"><title>org_apache_sling_scripting_jsp&#45;&gt;org_apache_sling_api</title>
<path fill="none" stroke="#bdbdbd" d="M460.532,-259.397C467.529,-290.106 483.771,-355.626 505.733,-408 509.692,-417.442 514.871,-427.352 519.808,-436.067"/>
<polygon fill="#bdbdbd" stroke="#bdbdbd" points="516.942,-438.1 525.003,-444.977 522.99,-434.575 516.942,-438.1"/>
</g>
<!-- org_apache_sling_scripting_jsp&#45;&gt;slf4j_api -->
<g id="edge92" class="edge"><title>org_apache_sling_scripting_jsp&#45;&gt;slf4j_api</title>
<path fill="none" stroke="#bdbdbd" d="M483.034,-259.221C543.153,-298.585 690.628,-395.145 758.063,-439.3"/>
<polygon fill="#bdbdbd" stroke="#bdbdbd" points="756.364,-442.37 766.647,-444.92 760.198,-436.514 756.364,-442.37"/>
</g>
<!-- org_apache_sling_commons_classloader -->
<g id="node28" class="node"><title>org_apache_sling_commons_classloader</title>
<polygon fill="#bdbdbd" stroke="black" points="528.026,-149 528.026,-185 705.44,-185 705.44,-149 528.026,-149"/>
<text text-anchor="middle" x="616.733" y="-173" font-family="Arial" font-size="8.00">Apache Sling Dynamic Class Loader Support</text>
<polyline fill="none" stroke="black" points="528.026,-167.801 705.44,-167.801 "/>
<text text-anchor="middle" x="616.733" y="-155.301" font-family="Arial" font-size="8.00">org.apache.sling.commons.classloader(1.3.0)</text>
</g>
<!-- org_apache_sling_scripting_jsp&#45;&gt;org_apache_sling_commons_classloader -->
<g id="edge86" class="edge"><title>org_apache_sling_scripting_jsp&#45;&gt;org_apache_sling_commons_classloader</title>
<path fill="none" stroke="#bdbdbd" d="M494.651,-222.937C517.085,-212.841 545.693,-199.968 569.575,-189.221"/>
<polygon fill="#bdbdbd" stroke="#bdbdbd" points="571.127,-192.361 578.81,-185.065 568.255,-185.977 571.127,-192.361"/>
</g>
<!-- org_apache_sling_scripting_api -->
<g id="node29" class="node"><title>org_apache_sling_scripting_api</title>
<polygon fill="#bdbdbd" stroke="black" points="341.69,-149 341.69,-185 509.776,-185 509.776,-149 341.69,-149"/>
<text text-anchor="middle" x="425.733" y="-173" font-family="Arial" font-size="8.00">Apache Sling Scripting Implementation API</text>
<polyline fill="none" stroke="black" points="341.69,-167.801 509.776,-167.801 "/>
<text text-anchor="middle" x="425.733" y="-155.301" font-family="Arial" font-size="8.00">org.apache.sling.scripting.api(2.1.4)</text>
</g>
<!-- org_apache_sling_scripting_jsp&#45;&gt;org_apache_sling_scripting_api -->
<g id="edge90" class="edge"><title>org_apache_sling_scripting_jsp&#45;&gt;org_apache_sling_scripting_api</title>
<path fill="none" stroke="#bdbdbd" d="M449.386,-222.937C445.772,-214.542 441.33,-204.227 437.276,-194.81"/>
<polygon fill="#bdbdbd" stroke="#bdbdbd" points="440.411,-193.241 433.242,-185.441 433.982,-196.01 440.411,-193.241"/>
</g>
<!-- org_apache_sling_scripting_jsp&#45;&gt;org_apache_felix_eventadmin -->
<g id="edge94" class="edge"><title>org_apache_sling_scripting_jsp&#45;&gt;org_apache_felix_eventadmin</title>
<path fill="none" stroke="#bdbdbd" d="M408.151,-222.937C378.77,-212.618 341.127,-199.397 310.132,-188.511"/>
<polygon fill="#bdbdbd" stroke="#bdbdbd" points="310.916,-185.077 300.321,-185.065 308.596,-191.681 310.916,-185.077"/>
</g>
<!-- org_apache_sling_commons_classloader&#45;&gt;slf4j_api -->
<g id="edge102" class="edge"><title>org_apache_sling_commons_classloader&#45;&gt;slf4j_api</title>
<path fill="none" stroke="#bdbdbd" d="M681.441,-185.08C707.905,-193.765 738.039,-205.938 762.733,-222 801.2,-247.02 810.561,-256.995 834.733,-296 861.651,-339.437 882.952,-361.982 860.733,-408 854.778,-420.333 844.487,-430.712 833.686,-438.972"/>
<polygon fill="#bdbdbd" stroke="#bdbdbd" points="831.511,-436.224 825.391,-444.873 835.569,-441.929 831.511,-436.224"/>
</g>
<!-- org_apache_felix_eventadmin&#45;&gt;org_apache_felix_metatype -->
<g id="edge104" class="edge"><title>org_apache_felix_eventadmin&#45;&gt;org_apache_felix_metatype</title>
<path fill="none" stroke="#bdbdbd" d="M258.368,-148.937C261.633,-140.542 265.645,-130.227 269.307,-120.81"/>
<polygon fill="#bdbdbd" stroke="#bdbdbd" points="272.588,-122.029 272.95,-111.441 266.064,-119.492 272.588,-122.029"/>
</g>
<!-- org_apache_felix_eventadmin&#45;&gt;org_apache_sling_commons_logservice -->
<g id="edge106" class="edge"><title>org_apache_felix_eventadmin&#45;&gt;org_apache_sling_commons_logservice</title>
<path fill="none" stroke="#bdbdbd" d="M308.76,-148.906C326.283,-140.679 343.604,-128.822 353.733,-112 366.074,-91.5029 355.824,-65.1247 344.409,-45.8727"/>
<polygon fill="#bdbdbd" stroke="#bdbdbd" points="347.293,-43.8853 338.982,-37.3137 341.381,-47.6335 347.293,-43.8853"/>
</g>
<!-- org_apache_felix_eventadmin&#45;&gt;org_apache_felix_configadmin -->
<g id="edge108" class="edge"><title>org_apache_felix_eventadmin&#45;&gt;org_apache_felix_configadmin</title>
<path fill="none" stroke="#bdbdbd" d="M219.029,-148.937C200.09,-139.056 176.052,-126.514 155.726,-115.91"/>
<polygon fill="#bdbdbd" stroke="#bdbdbd" points="157.165,-112.713 146.68,-111.19 153.927,-118.919 157.165,-112.713"/>
</g>
</g>
</svg>
