<?xml version="1.0" encoding="UTF-8" standalone="no"?>
<!DOCTYPE svg PUBLIC "-//W3C//DTD SVG 1.1//EN"
 "http://www.w3.org/Graphics/SVG/1.1/DTD/svg11.dtd">
<!-- Generated by graphviz version 2.34.0 (20130907.0228)
 -->
<!-- Title: %3 Pages: 1 -->
<svg width="1980pt" height="416pt"
 viewBox="0.00 0.00 1980.00 416.00" xmlns="http://www.w3.org/2000/svg" xmlns:xlink="http://www.w3.org/1999/xlink">
<g id="graph0" class="graph" transform="scale(1 1) rotate(0) translate(4 412)">
<title>%3</title>
<polygon fill="white" stroke="white" points="-4,4 -4,-412 1976,-412 1976,4 -4,4"/>
<!-- org_liveSense_core -->
<g id="node1" class="node"><title>org_liveSense_core</title>
<polygon fill="yellow" stroke="black" points="906.5,-371 906.5,-407 1045.5,-407 1045.5,-371 906.5,-371"/>
<text text-anchor="middle" x="976" y="-396.1" font-family="Arial" font-size="8.00">liveSense :: Core</text>
<polyline fill="none" stroke="black" points="906.5,-389 1045.5,-389 "/>
<text text-anchor="middle" x="976" y="-378.1" font-family="Arial" font-size="8.00">org.liveSense.core(2&#45;SNAPSHOT)</text>
</g>
<!-- javax_jcr -->
<g id="node2" class="node"><title>javax_jcr</title>
<polygon fill="green" stroke="black" points="219,-297 219,-333 405,-333 405,-297 219,-297"/>
<text text-anchor="middle" x="312" y="-322.1" font-family="Arial" font-size="8.00">Content Repository for JavaTM Technology API</text>
<polyline fill="none" stroke="black" points="219,-315 405,-315 "/>
<text text-anchor="middle" x="312" y="-304.1" font-family="Arial" font-size="8.00">javax.jcr(2.0)</text>
</g>
<!-- org_liveSense_core&#45;&gt;javax_jcr -->
<g id="edge1" class="edge"><title>org_liveSense_core&#45;&gt;javax_jcr</title>
<path fill="none" stroke="yellow" d="M906.142,-383.069C801.594,-375.294 598.046,-358.634 415.138,-334.097"/>
<polygon fill="yellow" stroke="yellow" points="415.443,-330.607 405.064,-332.735 414.505,-337.544 415.443,-330.607"/>
</g>
<!-- org_apache_sling_api -->
<g id="node3" class="node"><title>org_apache_sling_api</title>
<polygon fill="green" stroke="black" points="920.5,-297 920.5,-333 1031.5,-333 1031.5,-297 920.5,-297"/>
<text text-anchor="middle" x="976" y="-322.1" font-family="Arial" font-size="8.00">Apache Sling API</text>
<polyline fill="none" stroke="black" points="920.5,-315 1031.5,-315 "/>
<text text-anchor="middle" x="976" y="-304.1" font-family="Arial" font-size="8.00">org.apache.sling.api(2.4.2)</text>
</g>
<!-- org_liveSense_core&#45;&gt;org_apache_sling_api -->
<g id="edge2" class="edge"><title>org_liveSense_core&#45;&gt;org_apache_sling_api</title>
<path fill="none" stroke="yellow" d="M976,-370.937C976,-362.807 976,-352.876 976,-343.705"/>
<polygon fill="yellow" stroke="yellow" points="979.5,-343.441 976,-333.441 972.5,-343.441 979.5,-343.441"/>
</g>
<!-- org_apache_sling_commons_osgi -->
<g id="node4" class="node"><title>org_apache_sling_commons_osgi</title>
<polygon fill="green" stroke="black" points="592.5,-297 592.5,-333 745.5,-333 745.5,-297 592.5,-297"/>
<text text-anchor="middle" x="669" y="-322.1" font-family="Arial" font-size="8.00">Apache Sling Commons OSGi support</text>
<polyline fill="none" stroke="black" points="592.5,-315 745.5,-315 "/>
<text text-anchor="middle" x="669" y="-304.1" font-family="Arial" font-size="8.00">org.apache.sling.commons.osgi(2.2.0)</text>
</g>
<!-- org_liveSense_core&#45;&gt;org_apache_sling_commons_osgi -->
<g id="edge3" class="edge"><title>org_liveSense_core&#45;&gt;org_apache_sling_commons_osgi</title>
<path fill="none" stroke="yellow" d="M906.337,-371.662C860.326,-360.871 799.818,-346.68 751.414,-335.328"/>
<polygon fill="yellow" stroke="yellow" points="752.126,-331.9 741.591,-333.025 750.527,-338.715 752.126,-331.9"/>
</g>
<!-- org_apache_geronimo_specs_geronimo_servlet_3_0_spec -->
<g id="node5" class="node"><title>org_apache_geronimo_specs_geronimo_servlet_3_0_spec</title>
<polygon fill="green" stroke="black" points="1050,-297 1050,-333 1280,-333 1280,-297 1050,-297"/>
<text text-anchor="middle" x="1165" y="-322.1" font-family="Arial" font-size="8.00">Servlet 3.0</text>
<polyline fill="none" stroke="black" points="1050,-315 1280,-315 "/>
<text text-anchor="middle" x="1165" y="-304.1" font-family="Arial" font-size="8.00">org.apache.geronimo.specs.geronimo&#45;servlet_3.0_spec(1.0)</text>
</g>
<!-- org_liveSense_core&#45;&gt;org_apache_geronimo_specs_geronimo_servlet_3_0_spec -->
<g id="edge4" class="edge"><title>org_liveSense_core&#45;&gt;org_apache_geronimo_specs_geronimo_servlet_3_0_spec</title>
<path fill="none" stroke="yellow" d="M1020.79,-370.937C1047.76,-360.663 1082.28,-347.511 1110.79,-336.652"/>
<polygon fill="yellow" stroke="yellow" points="1112.11,-339.896 1120.2,-333.065 1109.61,-333.354 1112.11,-339.896"/>
</g>
<!-- org_apache_commons_lang -->
<g id="node6" class="node"><title>org_apache_commons_lang</title>
<polygon fill="green" stroke="black" points="1489.5,-297 1489.5,-333 1616.5,-333 1616.5,-297 1489.5,-297"/>
<text text-anchor="middle" x="1553" y="-322.1" font-family="Arial" font-size="8.00">Commons Lang</text>
<polyline fill="none" stroke="black" points="1489.5,-315 1616.5,-315 "/>
<text text-anchor="middle" x="1553" y="-304.1" font-family="Arial" font-size="8.00">org.apache.commons.lang(2.6)</text>
</g>
<!-- org_liveSense_core&#45;&gt;org_apache_commons_lang -->
<g id="edge5" class="edge"><title>org_liveSense_core&#45;&gt;org_apache_commons_lang</title>
<path fill="none" stroke="yellow" d="M1045.71,-383.52C1141.36,-376.71 1318.7,-361.711 1479.34,-333.976"/>
<polygon fill="yellow" stroke="yellow" points="1480.16,-337.386 1489.41,-332.217 1478.95,-330.49 1480.16,-337.386"/>
</g>
<!-- org_apache_commons_beanutils -->
<g id="node7" class="node"><title>org_apache_commons_beanutils</title>
<polygon fill="green" stroke="black" points="423.5,-297 423.5,-333 574.5,-333 574.5,-297 423.5,-297"/>
<text text-anchor="middle" x="499" y="-322.1" font-family="Arial" font-size="8.00">Commons BeanUtils</text>
<polyline fill="none" stroke="black" points="423.5,-315 574.5,-315 "/>
<text text-anchor="middle" x="499" y="-304.1" font-family="Arial" font-size="8.00">org.apache.commons.beanutils(1.8.3)</text>
</g>
<!-- org_liveSense_core&#45;&gt;org_apache_commons_beanutils -->
<g id="edge6" class="edge"><title>org_liveSense_core&#45;&gt;org_apache_commons_beanutils</title>
<path fill="none" stroke="yellow" d="M906.185,-380.001C829.572,-370.865 702.771,-354.687 584.461,-334.196"/>
<polygon fill="yellow" stroke="yellow" points="584.957,-330.729 574.504,-332.457 583.753,-337.625 584.957,-330.729"/>
</g>
<!-- org_apache_felix_scr -->
<g id="node8" class="node"><title>org_apache_felix_scr</title>
<polygon fill="green" stroke="black" points="764,-297 764,-333 902,-333 902,-297 764,-297"/>
<text text-anchor="middle" x="833" y="-322.1" font-family="Arial" font-size="8.00">Apache Felix Declarative Services</text>
<polyline fill="none" stroke="black" points="764,-315 902,-315 "/>
<text text-anchor="middle" x="833" y="-304.1" font-family="Arial" font-size="8.00">org.apache.felix.scr(1.6.2)</text>
</g>
<!-- org_liveSense_core&#45;&gt;org_apache_felix_scr -->
<g id="edge7" class="edge"><title>org_liveSense_core&#45;&gt;org_apache_felix_scr</title>
<path fill="none" stroke="yellow" d="M942.111,-370.937C922.398,-361.012 897.353,-348.401 876.231,-337.766"/>
<polygon fill="yellow" stroke="yellow" points="877.647,-334.561 867.141,-333.19 874.499,-340.813 877.647,-334.561"/>
</g>
<!-- org_ops4j_pax_logging_pax_logging_api -->
<g id="node9" class="node"><title>org_ops4j_pax_logging_pax_logging_api</title>
<polygon fill="green" stroke="black" points="1298.5,-297 1298.5,-333 1471.5,-333 1471.5,-297 1298.5,-297"/>
<text text-anchor="middle" x="1385" y="-322.1" font-family="Arial" font-size="8.00">OPS4J Pax Logging &#45; API</text>
<polyline fill="none" stroke="black" points="1298.5,-315 1471.5,-315 "/>
<text text-anchor="middle" x="1385" y="-304.1" font-family="Arial" font-size="8.00">org.ops4j.pax.logging.pax&#45;logging&#45;api(1.7.0)</text>
</g>
<!-- org_liveSense_core&#45;&gt;org_ops4j_pax_logging_pax_logging_api -->
<g id="edge8" class="edge"><title>org_liveSense_core&#45;&gt;org_ops4j_pax_logging_pax_logging_api</title>
<path fill="none" stroke="yellow" d="M1045.67,-376.278C1106.84,-365.918 1198.51,-350.228 1288.31,-334.111"/>
<polygon fill="yellow" stroke="yellow" points="1289.18,-337.511 1298.4,-332.297 1287.94,-330.621 1289.18,-337.511"/>
</g>
<!-- org_apache_servicemix_bundles_guava -->
<g id="node10" class="node"><title>org_apache_servicemix_bundles_guava</title>
<polygon fill="green" stroke="black" points="1634.5,-297 1634.5,-333 1819.5,-333 1819.5,-297 1634.5,-297"/>
<text text-anchor="middle" x="1727" y="-322.1" font-family="Arial" font-size="8.00">Apache ServiceMix :: Bundles :: guava</text>
<polyline fill="none" stroke="black" points="1634.5,-315 1819.5,-315 "/>
<text text-anchor="middle" x="1727" y="-304.1" font-family="Arial" font-size="8.00">org.apache.servicemix.bundles.guava(11.0.0.1)</text>
</g>
<!-- org_liveSense_core&#45;&gt;org_apache_servicemix_bundles_guava -->
<g id="edge9" class="edge"><title>org_liveSense_core&#45;&gt;org_apache_servicemix_bundles_guava</title>
<path fill="none" stroke="yellow" d="M1045.85,-384.294C1163.2,-377.604 1407.5,-361.693 1624.51,-333.992"/>
<polygon fill="yellow" stroke="yellow" points="1625.02,-337.455 1634.49,-332.706 1624.13,-330.512 1625.02,-337.455"/>
</g>
<!-- net_entropysoft_transmorph -->
<g id="node11" class="node"><title>net_entropysoft_transmorph</title>
<polygon fill="green" stroke="black" points="1837.5,-297 1837.5,-333 1972.5,-333 1972.5,-297 1837.5,-297"/>
<text text-anchor="middle" x="1905" y="-322.1" font-family="Arial" font-size="8.00">Transmorph</text>
<polyline fill="none" stroke="black" points="1837.5,-315 1972.5,-315 "/>
<text text-anchor="middle" x="1905" y="-304.1" font-family="Arial" font-size="8.00">net.entropysoft.transmorph(3.1.1)</text>
</g>
<!-- org_liveSense_core&#45;&gt;net_entropysoft_transmorph -->
<g id="edge10" class="edge"><title>org_liveSense_core&#45;&gt;net_entropysoft_transmorph</title>
<path fill="none" stroke="yellow" d="M1045.71,-387.497C1190.01,-385.607 1531.9,-376.735 1827.06,-333.989"/>
<polygon fill="yellow" stroke="yellow" points="1827.71,-337.431 1837.1,-332.519 1826.7,-330.505 1827.71,-337.431"/>
</g>
<!-- org_apache_jackrabbit_jackrabbit_jcr_commons -->
<g id="node12" class="node"><title>org_apache_jackrabbit_jackrabbit_jcr_commons</title>
<polygon fill="green" stroke="black" points="-0.5,-297 -0.5,-333 200.5,-333 200.5,-297 -0.5,-297"/>
<text text-anchor="middle" x="100" y="-322.1" font-family="Arial" font-size="8.00">Jackrabbit JCR Commons</text>
<polyline fill="none" stroke="black" points="-0.5,-315 200.5,-315 "/>
<text text-anchor="middle" x="100" y="-304.1" font-family="Arial" font-size="8.00">org.apache.jackrabbit.jackrabbit&#45;jcr&#45;commons(2.4.2)</text>
</g>
<!-- org_liveSense_core&#45;&gt;org_apache_jackrabbit_jackrabbit_jcr_commons -->
<g id="edge11" class="edge"><title>org_liveSense_core&#45;&gt;org_apache_jackrabbit_jackrabbit_jcr_commons</title>
<path fill="none" stroke="yellow" d="M906.355,-385.234C773.267,-379.48 473.465,-364.266 210.771,-334.025"/>
<polygon fill="yellow" stroke="yellow" points="210.993,-330.527 200.656,-332.851 210.186,-337.48 210.993,-330.527"/>
</g>
<!-- org_apache_sling_api&#45;&gt;org_apache_geronimo_specs_geronimo_servlet_3_0_spec -->
<g id="edge13" class="edge"><title>org_apache_sling_api&#45;&gt;org_apache_geronimo_specs_geronimo_servlet_3_0_spec</title>
<path fill="none" stroke="green" d="M1031.74,-315C1034.4,-315 1037.05,-315 1039.71,-315"/>
<polygon fill="green" stroke="green" points="1039.96,-318.5 1049.96,-315 1039.96,-311.5 1039.96,-318.5"/>
</g>
<!-- org_apache_sling_api&#45;&gt;org_ops4j_pax_logging_pax_logging_api -->
<g id="edge12" class="edge"><title>org_apache_sling_api&#45;&gt;org_ops4j_pax_logging_pax_logging_api</title>
<path fill="none" stroke="green" d="M1004.34,-333.051C1017.65,-340.489 1034.06,-348.238 1050,-352 1149.49,-375.486 1179.24,-369.233 1280,-352 1298.16,-348.895 1317.34,-342.974 1334.28,-336.765"/>
<polygon fill="green" stroke="green" points="1335.86,-339.91 1343.97,-333.094 1333.38,-333.365 1335.86,-339.91"/>
</g>
<!-- org_apache_felix_eventadmin -->
<g id="node16" class="node"><title>org_apache_felix_eventadmin</title>
<polygon fill="#9ecae1" stroke="black" points="858,-75 858,-111 998,-111 998,-75 858,-75"/>
<text text-anchor="middle" x="928" y="-100.1" font-family="Arial" font-size="8.00">Apache Felix EventAdmin</text>
<polyline fill="none" stroke="black" points="858,-93 998,-93 "/>
<text text-anchor="middle" x="928" y="-82.1" font-family="Arial" font-size="8.00">org.apache.felix.eventadmin(1.3.2)</text>
</g>
<!-- org_apache_sling_commons_osgi&#45;&gt;org_apache_felix_eventadmin -->
<g id="edge14" class="edge"><title>org_apache_sling_commons_osgi&#45;&gt;org_apache_felix_eventadmin</title>
<path fill="none" stroke="green" d="M689.323,-296.737C735.281,-257.7 847.278,-162.567 899.861,-117.902"/>
<polygon fill="green" stroke="green" points="902.415,-120.324 907.771,-111.183 897.884,-114.989 902.415,-120.324"/>
</g>
<!-- org_apache_commons_beanutils&#45;&gt;org_ops4j_pax_logging_pax_logging_api -->
<g id="edge15" class="edge"><title>org_apache_commons_beanutils&#45;&gt;org_ops4j_pax_logging_pax_logging_api</title>
<path fill="none" stroke="green" d="M535.14,-333.082C551.974,-340.527 572.544,-348.272 592,-352 667.078,-366.387 1204.65,-364.888 1280,-352 1298.16,-348.895 1317.34,-342.974 1334.28,-336.765"/>
<polygon fill="green" stroke="green" points="1335.86,-339.91 1343.97,-333.094 1333.38,-333.365 1335.86,-339.91"/>
</g>
<!-- org_apache_commons_collections -->
<g id="node13" class="node"><title>org_apache_commons_collections</title>
<polygon fill="#3182bd" stroke="black" points="421,-223 421,-259 577,-259 577,-223 421,-223"/>
<text text-anchor="middle" x="499" y="-248.1" font-family="Arial" font-size="8.00">Commons Collections</text>
<polyline fill="none" stroke="black" points="421,-241 577,-241 "/>
<text text-anchor="middle" x="499" y="-230.1" font-family="Arial" font-size="8.00">org.apache.commons.collections(3.2.1)</text>
</g>
<!-- org_apache_commons_beanutils&#45;&gt;org_apache_commons_collections -->
<g id="edge16" class="edge"><title>org_apache_commons_beanutils&#45;&gt;org_apache_commons_collections</title>
<path fill="none" stroke="green" d="M499,-296.937C499,-288.807 499,-278.876 499,-269.705"/>
<polygon fill="green" stroke="green" points="502.5,-269.441 499,-259.441 495.5,-269.441 502.5,-269.441"/>
</g>
<!-- org_apache_felix_scr&#45;&gt;org_ops4j_pax_logging_pax_logging_api -->
<g id="edge20" class="edge"><title>org_apache_felix_scr&#45;&gt;org_ops4j_pax_logging_pax_logging_api</title>
<path fill="none" stroke="green" d="M866.685,-333.074C882.408,-340.517 901.666,-348.263 920,-352 998.388,-367.976 1201.15,-365.487 1280,-352 1298.16,-348.895 1317.34,-342.974 1334.28,-336.765"/>
<polygon fill="green" stroke="green" points="1335.86,-339.91 1343.97,-333.094 1333.38,-333.365 1335.86,-339.91"/>
</g>
<!-- org_apache_karaf_shell_console -->
<g id="node14" class="node"><title>org_apache_karaf_shell_console</title>
<polygon fill="#3182bd" stroke="black" points="1167,-223 1167,-259 1333,-259 1333,-223 1167,-223"/>
<text text-anchor="middle" x="1250" y="-248.1" font-family="Arial" font-size="8.00">Apache Karaf :: Shell :: Console</text>
<polyline fill="none" stroke="black" points="1167,-241 1333,-241 "/>
<text text-anchor="middle" x="1250" y="-230.1" font-family="Arial" font-size="8.00">org.apache.karaf.shell.console(3.0.0.RC1)</text>
</g>
<!-- org_apache_felix_scr&#45;&gt;org_apache_karaf_shell_console -->
<g id="edge17" class="edge"><title>org_apache_felix_scr&#45;&gt;org_apache_karaf_shell_console</title>
<path fill="none" stroke="green" d="M902.27,-297.754C905.216,-297.146 908.135,-296.558 911,-296 993.626,-279.905 1088.28,-265.132 1156.53,-255.121"/>
<polygon fill="green" stroke="green" points="1157.44,-258.526 1166.82,-253.618 1156.42,-251.599 1157.44,-258.526"/>
</g>
<!-- org_apache_felix_configadmin -->
<g id="node23" class="node"><title>org_apache_felix_configadmin</title>
<polygon fill="#deebf7" stroke="black" points="943,-1 943,-37 1109,-37 1109,-1 943,-1"/>
<text text-anchor="middle" x="1026" y="-26.1" font-family="Arial" font-size="8.00">Apache Felix Configuration Admin Service</text>
<polyline fill="none" stroke="black" points="943,-19 1109,-19 "/>
<text text-anchor="middle" x="1026" y="-8.1" font-family="Arial" font-size="8.00">org.apache.felix.configadmin(1.6.0)</text>
</g>
<!-- org_apache_felix_scr&#45;&gt;org_apache_felix_configadmin -->
<g id="edge18" class="edge"><title>org_apache_felix_scr&#45;&gt;org_apache_felix_configadmin</title>
<path fill="none" stroke="green" d="M853.406,-296.886C890.317,-264.724 967.961,-191.32 1007,-112 1017.04,-91.5995 1021.78,-66.1339 1024.01,-47.1701"/>
<polygon fill="green" stroke="green" points="1027.51,-47.4138 1025.04,-37.1107 1020.54,-46.7046 1027.51,-47.4138"/>
</g>
<!-- org_apache_felix_metatype -->
<g id="node24" class="node"><title>org_apache_felix_metatype</title>
<polygon fill="#deebf7" stroke="black" points="764.5,-1 764.5,-37 895.5,-37 895.5,-1 764.5,-1"/>
<text text-anchor="middle" x="830" y="-26.1" font-family="Arial" font-size="8.00">Apache Felix Metatype Service</text>
<polyline fill="none" stroke="black" points="764.5,-19 895.5,-19 "/>
<text text-anchor="middle" x="830" y="-8.1" font-family="Arial" font-size="8.00">org.apache.felix.metatype(1.0.6)</text>
</g>
<!-- org_apache_felix_scr&#45;&gt;org_apache_felix_metatype -->
<g id="edge19" class="edge"><title>org_apache_felix_scr&#45;&gt;org_apache_felix_metatype</title>
<path fill="none" stroke="green" d="M826.11,-296.811C822.294,-286.357 817.941,-272.629 816,-260 803.442,-178.293 805.543,-156.003 816,-74 817.132,-65.1209 819.272,-55.6147 821.544,-47.0914"/>
<polygon fill="green" stroke="green" points="824.962,-47.8662 824.322,-37.2907 818.227,-45.9572 824.962,-47.8662"/>
</g>
<!-- org_ops4j_pax_logging_pax_logging_api&#45;&gt;org_apache_felix_eventadmin -->
<g id="edge23" class="edge"><title>org_ops4j_pax_logging_pax_logging_api&#45;&gt;org_apache_felix_eventadmin</title>
<path fill="none" stroke="#3182bd" d="M1298.39,-298.15C1188.71,-275.695 1008.36,-232.186 960,-186 941.693,-168.517 930.98,-141.387 926.754,-121.112"/>
<polygon fill="#3182bd" stroke="#3182bd" points="930.204,-120.522 925.129,-111.221 923.296,-121.656 930.204,-120.522"/>
</g>
<!-- org_apache_jackrabbit_jackrabbit_jcr_commons&#45;&gt;javax_jcr -->
<g id="edge21" class="edge"><title>org_apache_jackrabbit_jackrabbit_jcr_commons&#45;&gt;javax_jcr</title>
<path fill="none" stroke="green" d="M200.617,-315C203.282,-315 205.947,-315 208.612,-315"/>
<polygon fill="green" stroke="green" points="208.891,-318.5 218.891,-315 208.891,-311.5 208.891,-318.5"/>
</g>
<!-- org_apache_jackrabbit_jackrabbit_api -->
<g id="node15" class="node"><title>org_apache_jackrabbit_jackrabbit_api</title>
<polygon fill="#3182bd" stroke="black" points="123,-223 123,-259 289,-259 289,-223 123,-223"/>
<text text-anchor="middle" x="206" y="-248.1" font-family="Arial" font-size="8.00">Apache Jackrabbit API</text>
<polyline fill="none" stroke="black" points="123,-241 289,-241 "/>
<text text-anchor="middle" x="206" y="-230.1" font-family="Arial" font-size="8.00">org.apache.jackrabbit.jackrabbit&#45;api(2.4.2)</text>
</g>
<!-- org_apache_jackrabbit_jackrabbit_jcr_commons&#45;&gt;org_apache_jackrabbit_jackrabbit_api -->
<g id="edge22" class="edge"><title>org_apache_jackrabbit_jackrabbit_jcr_commons&#45;&gt;org_apache_jackrabbit_jackrabbit_api</title>
<path fill="none" stroke="green" d="M125.121,-296.937C139.143,-287.412 156.806,-275.415 172.045,-265.063"/>
<polygon fill="green" stroke="green" points="174.387,-267.704 180.692,-259.19 170.454,-261.914 174.387,-267.704"/>
</g>
<!-- org_apache_karaf_shell_console&#45;&gt;org_ops4j_pax_logging_pax_logging_api -->
<g id="edge29" class="edge"><title>org_apache_karaf_shell_console&#45;&gt;org_ops4j_pax_logging_pax_logging_api</title>
<path fill="none" stroke="#3182bd" d="M1282.23,-259.19C1300.8,-269.094 1324.32,-281.638 1344.17,-292.226"/>
<polygon fill="#3182bd" stroke="#3182bd" points="1342.54,-295.319 1353.01,-296.937 1345.83,-289.143 1342.54,-295.319"/>
</g>
<!-- org_apache_karaf_shell_console&#45;&gt;org_apache_felix_eventadmin -->
<g id="edge26" class="edge"><title>org_apache_karaf_shell_console&#45;&gt;org_apache_felix_eventadmin</title>
<path fill="none" stroke="#3182bd" d="M1166.83,-231.974C1120.95,-224.822 1064.28,-211.345 1019,-186 989.364,-169.413 962.997,-140.335 946.372,-119.302"/>
<polygon fill="#3182bd" stroke="#3182bd" points="948.946,-116.908 940.072,-111.12 943.4,-121.178 948.946,-116.908"/>
</g>
<!-- org_apache_aries_blueprint_api -->
<g id="node17" class="node"><title>org_apache_aries_blueprint_api</title>
<polygon fill="#9ecae1" stroke="black" points="1102.5,-75 1102.5,-111 1247.5,-111 1247.5,-75 1102.5,-75"/>
<text text-anchor="middle" x="1175" y="-100.1" font-family="Arial" font-size="8.00">Apache Aries Blueprint API</text>
<polyline fill="none" stroke="black" points="1102.5,-93 1247.5,-93 "/>
<text text-anchor="middle" x="1175" y="-82.1" font-family="Arial" font-size="8.00">org.apache.aries.blueprint.api(1.0.0)</text>
</g>
<!-- org_apache_karaf_shell_console&#45;&gt;org_apache_aries_blueprint_api -->
<g id="edge24" class="edge"><title>org_apache_karaf_shell_console&#45;&gt;org_apache_aries_blueprint_api</title>
<path fill="none" stroke="#3182bd" d="M1258.39,-222.897C1266.62,-203.496 1276.16,-171.508 1263,-148 1255.46,-134.527 1243.03,-124.007 1229.86,-115.979"/>
<polygon fill="#3182bd" stroke="#3182bd" points="1231.57,-112.924 1221.14,-111.056 1228.13,-119.02 1231.57,-112.924"/>
</g>
<!-- jline -->
<g id="node18" class="node"><title>jline</title>
<polygon fill="#9ecae1" stroke="black" points="1200,-149 1200,-185 1254,-185 1254,-149 1200,-149"/>
<text text-anchor="middle" x="1227" y="-174.1" font-family="Arial" font-size="8.00">JLine</text>
<polyline fill="none" stroke="black" points="1200,-167 1254,-167 "/>
<text text-anchor="middle" x="1227" y="-156.1" font-family="Arial" font-size="8.00">jline(2.9.0)</text>
</g>
<!-- org_apache_karaf_shell_console&#45;&gt;jline -->
<g id="edge25" class="edge"><title>org_apache_karaf_shell_console&#45;&gt;jline</title>
<path fill="none" stroke="#3182bd" d="M1244.55,-222.937C1241.9,-214.63 1238.64,-204.444 1235.66,-195.108"/>
<polygon fill="#3182bd" stroke="#3182bd" points="1238.95,-193.901 1232.57,-185.441 1232.28,-196.032 1238.95,-193.901"/>
</g>
<!-- org_apache_aries_blueprint_core -->
<g id="node19" class="node"><title>org_apache_aries_blueprint_core</title>
<polygon fill="#9ecae1" stroke="black" points="1310,-149 1310,-185 1460,-185 1460,-149 1310,-149"/>
<text text-anchor="middle" x="1385" y="-174.1" font-family="Arial" font-size="8.00">Apache Aries Blueprint Core</text>
<polyline fill="none" stroke="black" points="1310,-167 1460,-167 "/>
<text text-anchor="middle" x="1385" y="-156.1" font-family="Arial" font-size="8.00">org.apache.aries.blueprint.core(1.1.0)</text>
</g>
<!-- org_apache_karaf_shell_console&#45;&gt;org_apache_aries_blueprint_core -->
<g id="edge27" class="edge"><title>org_apache_karaf_shell_console&#45;&gt;org_apache_aries_blueprint_core</title>
<path fill="none" stroke="#3182bd" d="M1281.99,-222.937C1300.52,-213.056 1324.04,-200.514 1343.92,-189.91"/>
<polygon fill="#3182bd" stroke="#3182bd" points="1345.59,-192.984 1352.77,-185.19 1342.3,-186.808 1345.59,-192.984"/>
</g>
<!-- org_apache_sshd_core -->
<g id="node20" class="node"><title>org_apache_sshd_core</title>
<polygon fill="#9ecae1" stroke="black" points="1730.5,-149 1730.5,-185 1847.5,-185 1847.5,-149 1730.5,-149"/>
<text text-anchor="middle" x="1789" y="-174.1" font-family="Arial" font-size="8.00">Apache Mina SSHD :: Core</text>
<polyline fill="none" stroke="black" points="1730.5,-167 1847.5,-167 "/>
<text text-anchor="middle" x="1789" y="-156.1" font-family="Arial" font-size="8.00">org.apache.sshd.core(0.8.0)</text>
</g>
<!-- org_apache_karaf_shell_console&#45;&gt;org_apache_sshd_core -->
<g id="edge28" class="edge"><title>org_apache_karaf_shell_console&#45;&gt;org_apache_sshd_core</title>
<path fill="none" stroke="#3182bd" d="M1333.04,-228.908C1439.28,-214.716 1621.34,-190.396 1720.22,-177.188"/>
<polygon fill="#3182bd" stroke="#3182bd" points="1720.95,-180.622 1730.4,-175.828 1720.02,-173.683 1720.95,-180.622"/>
</g>
<!-- org_apache_karaf_jaas_boot -->
<g id="node21" class="node"><title>org_apache_karaf_jaas_boot</title>
<polygon fill="#9ecae1" stroke="black" points="1028.5,-149 1028.5,-185 1181.5,-185 1181.5,-149 1028.5,-149"/>
<text text-anchor="middle" x="1105" y="-174.1" font-family="Arial" font-size="8.00">Apache Karaf :: JAAS :: Boot</text>
<polyline fill="none" stroke="black" points="1028.5,-167 1181.5,-167 "/>
<text text-anchor="middle" x="1105" y="-156.1" font-family="Arial" font-size="8.00">org.apache.karaf.jaas.boot(3.0.0.RC1)</text>
</g>
<!-- org_apache_karaf_shell_console&#45;&gt;org_apache_karaf_jaas_boot -->
<g id="edge30" class="edge"><title>org_apache_karaf_shell_console&#45;&gt;org_apache_karaf_jaas_boot</title>
<path fill="none" stroke="#3182bd" d="M1215.64,-222.937C1195.58,-212.975 1170.07,-200.309 1148.6,-189.65"/>
<polygon fill="#3182bd" stroke="#3182bd" points="1149.88,-186.378 1139.37,-185.065 1146.77,-192.647 1149.88,-186.378"/>
</g>
<!-- org_apache_jackrabbit_jackrabbit_api&#45;&gt;javax_jcr -->
<g id="edge31" class="edge"><title>org_apache_jackrabbit_jackrabbit_api&#45;&gt;javax_jcr</title>
<path fill="none" stroke="#3182bd" d="M231.308,-259.19C245.362,-268.737 263.03,-280.738 278.248,-291.074"/>
<polygon fill="#3182bd" stroke="#3182bd" points="276.641,-294.213 286.879,-296.937 280.574,-288.423 276.641,-294.213"/>
</g>
<!-- org_apache_geronimo_specs_geronimo_jta_1_1_spec -->
<g id="node22" class="node"><title>org_apache_geronimo_specs_geronimo_jta_1_1_spec</title>
<polygon fill="#9ecae1" stroke="black" points="95,-149 95,-185 317,-185 317,-149 95,-149"/>
<text text-anchor="middle" x="206" y="-174.1" font-family="Arial" font-size="8.00">geronimo&#45;jta_1.1_spec</text>
<polyline fill="none" stroke="black" points="95,-167 317,-167 "/>
<text text-anchor="middle" x="206" y="-156.1" font-family="Arial" font-size="8.00">org.apache.geronimo.specs.geronimo&#45;jta_1.1_spec(1.1.1)</text>
</g>
<!-- org_apache_jackrabbit_jackrabbit_api&#45;&gt;org_apache_geronimo_specs_geronimo_jta_1_1_spec -->
<g id="edge32" class="edge"><title>org_apache_jackrabbit_jackrabbit_api&#45;&gt;org_apache_geronimo_specs_geronimo_jta_1_1_spec</title>
<path fill="none" stroke="#3182bd" d="M206,-222.937C206,-214.807 206,-204.876 206,-195.705"/>
<polygon fill="#3182bd" stroke="#3182bd" points="209.5,-195.441 206,-185.441 202.5,-195.441 209.5,-195.441"/>
</g>
<!-- org_apache_felix_eventadmin&#45;&gt;org_ops4j_pax_logging_pax_logging_api -->
<g id="edge33" class="edge"><title>org_apache_felix_eventadmin&#45;&gt;org_ops4j_pax_logging_pax_logging_api</title>
<path fill="none" stroke="#9ecae1" d="M937.858,-111.221C945.476,-131.636 956.501,-165.469 978,-186 1024.06,-229.984 1189.82,-271.541 1295.11,-294.797"/>
<polygon fill="#9ecae1" stroke="#9ecae1" points="1294.59,-298.265 1305.11,-296.99 1296.09,-291.428 1294.59,-298.265"/>
</g>
<!-- org_apache_felix_eventadmin&#45;&gt;org_apache_felix_configadmin -->
<g id="edge34" class="edge"><title>org_apache_felix_eventadmin&#45;&gt;org_apache_felix_configadmin</title>
<path fill="none" stroke="#9ecae1" d="M951.225,-74.937C964.068,-65.5012 980.214,-53.6389 994.212,-43.3541"/>
<polygon fill="#9ecae1" stroke="#9ecae1" points="996.616,-45.9314 1002.6,-37.19 992.471,-40.2902 996.616,-45.9314"/>
</g>
<!-- org_apache_felix_eventadmin&#45;&gt;org_apache_felix_metatype -->
<g id="edge35" class="edge"><title>org_apache_felix_eventadmin&#45;&gt;org_apache_felix_metatype</title>
<path fill="none" stroke="#9ecae1" d="M904.775,-74.937C891.932,-65.5012 875.786,-53.6389 861.788,-43.3541"/>
<polygon fill="#9ecae1" stroke="#9ecae1" points="863.529,-40.2902 853.398,-37.19 859.384,-45.9314 863.529,-40.2902"/>
</g>
<!-- org_apache_aries_blueprint_core&#45;&gt;org_ops4j_pax_logging_pax_logging_api -->
<g id="edge39" class="edge"><title>org_apache_aries_blueprint_core&#45;&gt;org_ops4j_pax_logging_pax_logging_api</title>
<path fill="none" stroke="#9ecae1" d="M1385,-185.378C1385,-210.498 1385,-257.19 1385,-286.872"/>
<polygon fill="#9ecae1" stroke="#9ecae1" points="1381.5,-286.966 1385,-296.966 1388.5,-286.966 1381.5,-286.966"/>
</g>
<!-- org_apache_aries_blueprint_core&#45;&gt;org_apache_felix_eventadmin -->
<g id="edge38" class="edge"><title>org_apache_aries_blueprint_core&#45;&gt;org_apache_felix_eventadmin</title>
<path fill="none" stroke="#9ecae1" d="M1309.79,-154.151C1226.65,-141.051 1093.24,-120.034 1008.16,-106.629"/>
<polygon fill="#9ecae1" stroke="#9ecae1" points="1008.45,-103.132 998.032,-105.033 1007.37,-110.047 1008.45,-103.132"/>
</g>
<!-- org_apache_aries_blueprint_core&#45;&gt;org_apache_aries_blueprint_api -->
<g id="edge37" class="edge"><title>org_apache_aries_blueprint_core&#45;&gt;org_apache_aries_blueprint_api</title>
<path fill="none" stroke="#9ecae1" d="M1335.23,-148.937C1305.01,-138.573 1266.24,-125.283 1234.41,-114.37"/>
<polygon fill="#9ecae1" stroke="#9ecae1" points="1235.37,-110.998 1224.77,-111.065 1233.1,-117.619 1235.37,-110.998"/>
</g>
<!-- org_apache_aries_proxy_api -->
<g id="node25" class="node"><title>org_apache_aries_proxy_api</title>
<polygon fill="#deebf7" stroke="black" points="1502,-75 1502,-111 1636,-111 1636,-75 1502,-75"/>
<text text-anchor="middle" x="1569" y="-100.1" font-family="Arial" font-size="8.00">Apache Aries Proxy API</text>
<polyline fill="none" stroke="black" points="1502,-93 1636,-93 "/>
<text text-anchor="middle" x="1569" y="-82.1" font-family="Arial" font-size="8.00">org.apache.aries.proxy.api(1.0.0)</text>
</g>
<!-- org_apache_aries_blueprint_core&#45;&gt;org_apache_aries_proxy_api -->
<g id="edge36" class="edge"><title>org_apache_aries_blueprint_core&#45;&gt;org_apache_aries_proxy_api</title>
<path fill="none" stroke="#9ecae1" d="M1428.61,-148.937C1454.75,-138.707 1488.18,-125.626 1515.86,-114.794"/>
<polygon fill="#9ecae1" stroke="#9ecae1" points="1517.35,-117.969 1525.39,-111.065 1514.8,-111.45 1517.35,-117.969"/>
</g>
<!-- org_apache_aries_util -->
<g id="node26" class="node"><title>org_apache_aries_util</title>
<polygon fill="#deebf7" stroke="black" points="1513,-1 1513,-37 1625,-37 1625,-1 1513,-1"/>
<text text-anchor="middle" x="1569" y="-26.1" font-family="Arial" font-size="8.00">Apache Aries Util</text>
<polyline fill="none" stroke="black" points="1513,-19 1625,-19 "/>
<text text-anchor="middle" x="1569" y="-8.1" font-family="Arial" font-size="8.00">org.apache.aries.util(1.1.0)</text>
</g>
<!-- org_apache_aries_blueprint_core&#45;&gt;org_apache_aries_util -->
<g id="edge40" class="edge"><title>org_apache_aries_blueprint_core&#45;&gt;org_apache_aries_util</title>
<path fill="none" stroke="#9ecae1" d="M1404.08,-148.856C1425.34,-129.971 1460.94,-98.9709 1493,-74 1506.51,-63.4761 1521.84,-52.4257 1535.17,-43.0823"/>
<polygon fill="#9ecae1" stroke="#9ecae1" points="1537.4,-45.797 1543.61,-37.2115 1533.4,-40.0517 1537.4,-45.797"/>
</g>
<!-- org_apache_aries_quiesce_api -->
<g id="node27" class="node"><title>org_apache_aries_quiesce_api</title>
<polygon fill="#deebf7" stroke="black" points="1266,-75 1266,-111 1408,-111 1408,-75 1266,-75"/>
<text text-anchor="middle" x="1337" y="-100.1" font-family="Arial" font-size="8.00">Apache Aries Quiesce API</text>
<polyline fill="none" stroke="black" points="1266,-93 1408,-93 "/>
<text text-anchor="middle" x="1337" y="-82.1" font-family="Arial" font-size="8.00">org.apache.aries.quiesce.api(1.0.0)</text>
</g>
<!-- org_apache_aries_blueprint_core&#45;&gt;org_apache_aries_quiesce_api -->
<g id="edge41" class="edge"><title>org_apache_aries_blueprint_core&#45;&gt;org_apache_aries_quiesce_api</title>
<path fill="none" stroke="#9ecae1" d="M1373.62,-148.937C1367.85,-140.277 1360.72,-129.573 1354.28,-119.921"/>
<polygon fill="#9ecae1" stroke="#9ecae1" points="1357.09,-117.82 1348.63,-111.441 1351.26,-121.703 1357.09,-117.82"/>
</g>
<!-- org_apache_sshd_core&#45;&gt;org_ops4j_pax_logging_pax_logging_api -->
<g id="edge42" class="edge"><title>org_apache_sshd_core&#45;&gt;org_ops4j_pax_logging_pax_logging_api</title>
<path fill="none" stroke="#9ecae1" d="M1780.57,-185.156C1769.12,-206.501 1746.51,-242.289 1716,-260 1627.39,-311.447 1587.6,-280.287 1481.7,-296.014"/>
<polygon fill="#9ecae1" stroke="#9ecae1" points="1480.91,-292.596 1471.58,-297.628 1482.01,-299.509 1480.91,-292.596"/>
</g>
<!-- org_apache_mina_core -->
<g id="node28" class="node"><title>org_apache_mina_core</title>
<polygon fill="#deebf7" stroke="black" points="1692.5,-75 1692.5,-111 1809.5,-111 1809.5,-75 1692.5,-75"/>
<text text-anchor="middle" x="1751" y="-100.1" font-family="Arial" font-size="8.00">Apache MINA Core</text>
<polyline fill="none" stroke="black" points="1692.5,-93 1809.5,-93 "/>
<text text-anchor="middle" x="1751" y="-82.1" font-family="Arial" font-size="8.00">org.apache.mina.core(2.0.7)</text>
</g>
<!-- org_apache_sshd_core&#45;&gt;org_apache_mina_core -->
<g id="edge43" class="edge"><title>org_apache_sshd_core&#45;&gt;org_apache_mina_core</title>
<path fill="none" stroke="#9ecae1" d="M1779.99,-148.937C1775.52,-140.454 1770,-130.009 1764.99,-120.513"/>
<polygon fill="#9ecae1" stroke="#9ecae1" points="1767.97,-118.651 1760.2,-111.441 1761.78,-121.918 1767.97,-118.651"/>
</g>
<!-- bcprov -->
<g id="node29" class="node"><title>bcprov</title>
<polygon fill="#deebf7" stroke="black" points="1827.5,-75 1827.5,-111 1888.5,-111 1888.5,-75 1827.5,-75"/>
<text text-anchor="middle" x="1858" y="-100.1" font-family="Arial" font-size="8.00">bcprov</text>
<polyline fill="none" stroke="black" points="1827.5,-93 1888.5,-93 "/>
<text text-anchor="middle" x="1858" y="-82.1" font-family="Arial" font-size="8.00">bcprov(1.46)</text>
</g>
<!-- org_apache_sshd_core&#45;&gt;bcprov -->
<g id="edge44" class="edge"><title>org_apache_sshd_core&#45;&gt;bcprov</title>
<path fill="none" stroke="#9ecae1" d="M1805.35,-148.937C1813.99,-139.924 1824.75,-128.696 1834.29,-118.744"/>
<polygon fill="#9ecae1" stroke="#9ecae1" points="1836.89,-121.082 1841.29,-111.441 1831.84,-116.239 1836.89,-121.082"/>
</g>
<!-- org_apache_felix_configadmin&#45;&gt;org_ops4j_pax_logging_pax_logging_api -->
<g id="edge45" class="edge"><title>org_apache_felix_configadmin&#45;&gt;org_ops4j_pax_logging_pax_logging_api</title>
<path fill="none" stroke="#deebf7" d="M1109.28,-23.7641C1208.4,-29.5637 1366.84,-43.3991 1417,-74 1463.85,-102.58 1484.71,-133.416 1469,-186 1457.1,-225.813 1428.41,-264.733 1407.87,-289.005"/>
<polygon fill="#deebf7" stroke="#deebf7" points="1405.15,-286.801 1401.26,-296.654 1410.45,-291.38 1405.15,-286.801"/>
</g>
<!-- org_apache_felix_metatype&#45;&gt;org_ops4j_pax_logging_pax_logging_api -->
<g id="edge46" class="edge"><title>org_apache_felix_metatype&#45;&gt;org_ops4j_pax_logging_pax_logging_api</title>
<path fill="none" stroke="#deebf7" d="M830.188,-37.1726C831.127,-56.6368 834.923,-88.6833 849,-112 902.529,-200.664 934.133,-218.444 1029,-260 1132.93,-305.527 1171.73,-278.805 1288.4,-296.013"/>
<polygon fill="#deebf7" stroke="#deebf7" points="1288.01,-299.494 1298.43,-297.571 1289.08,-292.577 1288.01,-299.494"/>
</g>
<!-- org_apache_aries_proxy_api&#45;&gt;org_apache_aries_util -->
<g id="edge47" class="edge"><title>org_apache_aries_proxy_api&#45;&gt;org_apache_aries_util</title>
<path fill="none" stroke="#deebf7" d="M1569,-74.937C1569,-66.8072 1569,-56.8761 1569,-47.7047"/>
<polygon fill="#deebf7" stroke="#deebf7" points="1572.5,-47.4406 1569,-37.4407 1565.5,-47.4407 1572.5,-47.4406"/>
</g>
<!-- org_apache_aries_util&#45;&gt;org_ops4j_pax_logging_pax_logging_api -->
<g id="edge50" class="edge"><title>org_apache_aries_util&#45;&gt;org_ops4j_pax_logging_pax_logging_api</title>
<path fill="none" stroke="#bdbdbd" d="M1606.99,-37.2201C1621.65,-45.9841 1636.83,-58.179 1645,-74 1652.75,-89.0074 1651.33,-96.3418 1645,-112 1610.72,-196.801 1576.58,-207.042 1502,-260 1483.58,-273.083 1461.48,-284.248 1441.47,-292.973"/>
<polygon fill="#bdbdbd" stroke="#bdbdbd" points="1439.98,-289.802 1432.15,-296.932 1442.72,-296.245 1439.98,-289.802"/>
</g>
<!-- org_apache_mina_core&#45;&gt;org_ops4j_pax_logging_pax_logging_api -->
<g id="edge48" class="edge"><title>org_apache_mina_core&#45;&gt;org_ops4j_pax_logging_pax_logging_api</title>
<path fill="none" stroke="#deebf7" d="M1741.06,-111.244C1735.2,-121.717 1727.81,-135.446 1722,-148 1699.53,-196.532 1719.29,-226.015 1678,-260 1611.69,-314.571 1571.42,-282.268 1481.62,-296.047"/>
<polygon fill="#deebf7" stroke="#deebf7" points="1480.88,-292.622 1471.6,-297.743 1482.05,-299.524 1480.88,-292.622"/>
</g>
<!-- org_apache_servicemix_bundles_junit -->
<g id="node30" class="node"><title>org_apache_servicemix_bundles_junit</title>
<polygon fill="#bdbdbd" stroke="black" points="1771.5,-1 1771.5,-37 1944.5,-37 1944.5,-1 1771.5,-1"/>
<text text-anchor="middle" x="1858" y="-26.1" font-family="Arial" font-size="8.00">Apache ServiceMix :: Bundles :: junit</text>
<polyline fill="none" stroke="black" points="1771.5,-19 1944.5,-19 "/>
<text text-anchor="middle" x="1858" y="-8.1" font-family="Arial" font-size="8.00">org.apache.servicemix.bundles.junit(3.8.2.4)</text>
</g>
<!-- bcprov&#45;&gt;org_apache_servicemix_bundles_junit -->
<g id="edge49" class="edge"><title>bcprov&#45;&gt;org_apache_servicemix_bundles_junit</title>
<path fill="none" stroke="#deebf7" d="M1858,-74.937C1858,-66.8072 1858,-56.8761 1858,-47.7047"/>
<polygon fill="#deebf7" stroke="#deebf7" points="1861.5,-47.4406 1858,-37.4407 1854.5,-47.4407 1861.5,-47.4406"/>
</g>
</g>
</svg>
